
<?xml version="1.0" standalone="no"?>
<!DOCTYPE svg PUBLIC "-//W3C//DTD SVG 20010904//EN"
 "http://www.w3.org/TR/2001/REC-SVG-20010904/DTD/svg10.dtd">
<svg version="1.0" xmlns="http://www.w3.org/2000/svg"
 width="708.000000pt" height="708.000000pt" viewBox="0 0 708.000000 708.000000"
 preserveAspectRatio="xMidYMid meet">
<metadata>
Created by potrace 1.11, written by Peter Selinger 2001-2013
</metadata>
<g transform="translate(0.000000,708.000000) scale(0.100000,-0.100000)"
fill="#000000" stroke="none">
<path d="M3299 7076 c-2 -2 -41 -7 -85 -10 -45 -4 -93 -9 -105 -11 -13 -2 -42
-6 -64 -9 -75 -10 -120 -17 -220 -38 -55 -11 -109 -22 -120 -24 -69 -14 -335
-99 -455 -146 -943 -367 -1688 -1130 -2040 -2089 -39 -107 -117 -373 -125
-430 -4 -24 -8 -46 -11 -50 -7 -12 -52 -304 -61 -394 -15 -174 -9 -640 11
-765 3 -14 7 -43 10 -65 11 -90 31 -201 45 -260 6 -22 17 -67 25 -100 40 -164
91 -327 131 -420 7 -16 29 -70 50 -120 216 -521 614 -1038 1075 -1396 454
-353 1025 -608 1550 -694 19 -3 46 -7 60 -10 48 -9 149 -23 230 -32 144 -16
664 -8 769 12 9 1 43 6 76 10 144 16 413 79 604 141 340 110 724 311 1011 528
647 489 1078 1126 1304 1926 24 84 74 337 82 410 3 36 8 68 10 71 9 16 19 238
19 439 0 200 -8 366 -20 425 -2 11 -6 38 -9 60 -23 189 -77 420 -148 630 -377
1127 -1311 2002 -2455 2300 -139 37 -338 74 -473 90 -30 4 -68 9 -85 11 -36 6
-581 15 -586 10z"/>
</g>
</svg>
